<svg width="28" height="28" viewBox="0 0 28 28" fill="none" xmlns="http://www.w3.org/2000/svg">
<path d="M21.0592 4.91016C20.1692 4.91016 19.4492 5.63016 19.4492 6.52016C19.4492 7.41016 20.1692 8.13016 21.0592 8.13016C21.9492 8.13016 22.6692 7.41016 22.6692 6.52016C22.6692 5.63016 21.9492 4.91016 21.0592 4.91016Z" fill="#592787"/>
<path d="M13.8796 6.98047C10.1396 6.98047 7.09961 10.0205 7.09961 13.7605C7.09961 17.5005 10.1396 20.5405 13.8796 20.5405C17.6196 20.5405 20.6596 17.5005 20.6596 13.7605C20.6596 10.0205 17.6196 6.98047 13.8796 6.98047ZM13.8796 18.1005C11.4896 18.1005 9.53961 16.1505 9.53961 13.7605C9.53961 11.3705 11.4896 9.42047 13.8796 9.42047C16.2696 9.42047 18.2196 11.3705 18.2196 13.7605C18.2196 16.1505 16.2696 18.1005 13.8796 18.1005Z" fill="#592787"/>
<path d="M19.26 27.52H8.27C3.71 27.52 0 23.81 0 19.25V8.26C0.01 3.71 3.72 0 8.28 0H19.27C23.83 0 27.54 3.71 27.54 8.27V19.26C27.54 23.82 23.83 27.53 19.27 27.53L19.26 27.52ZM8.28 2.59C5.15 2.59 2.6 5.14 2.6 8.27V19.26C2.6 22.39 5.15 24.94 8.28 24.94H19.27C22.4 24.94 24.95 22.39 24.95 19.26V8.27C24.95 5.14 22.4 2.59 19.27 2.59H8.28Z" fill="#592787"/>
</svg>
